<svg xmlns="http://www.w3.org/2000/svg" width="25.194" height="25.193" viewBox="0 0 25.194 25.193"><defs><style>.a{fill:#1b3367;}</style></defs><path class="a" d="M20.625,8C13.512,8,8,13.2,8,20.22a11.942,11.942,0,0,0,3.966,9.038c.424.381.337.6.409,2.958a1.012,1.012,0,0,0,1.416.892c2.688-1.184,2.722-1.277,3.178-1.153,7.786,2.143,16.226-2.84,16.226-11.735C33.194,13.2,27.738,8,20.625,8Zm7.581,9.4L24.5,23.274a1.9,1.9,0,0,1-2.738.5l-2.95-2.208a.762.762,0,0,0-.914,0l-3.981,3.019a.6.6,0,0,1-.869-.8l3.708-5.87a1.9,1.9,0,0,1,2.738-.5l2.949,2.208a.762.762,0,0,0,.914,0l3.983-3.016a.6.6,0,0,1,.868.793Z" transform="translate(-8 -8)"/></svg>