<svg xmlns="http://www.w3.org/2000/svg" width="28.168" height="24.647" viewBox="0 0 28.168 24.647"><defs><style>.a{fill:#1b3367;}</style></defs><path class="a" d="M14.084,32C6.3,32,0,37.122,0,43.443a10.157,10.157,0,0,0,3.136,7.19A14,14,0,0,1,.121,55.9a.437.437,0,0,0-.083.479.431.431,0,0,0,.4.264,12.582,12.582,0,0,0,7.735-2.828,16.778,16.778,0,0,0,5.909,1.067c7.779,0,14.084-5.122,14.084-11.443S21.863,32,14.084,32ZM7.053,46.964H6.382a.441.441,0,0,1-.44-.44v-.88a.441.441,0,0,1,.44-.44h.677c.33,0,.572-.193.572-.363a.291.291,0,0,0-.116-.209L6.31,43.6a2.034,2.034,0,0,1-.732-1.546,2.237,2.237,0,0,1,2.333-2.124h.671a.441.441,0,0,1,.44.44v.88a.441.441,0,0,1-.44.44H7.906c-.33,0-.572.193-.572.363a.291.291,0,0,0,.116.209l1.2,1.034a2.034,2.034,0,0,1,.732,1.546,2.233,2.233,0,0,1-2.333,2.124Zm10.552-.44a.441.441,0,0,1-.44.44h-.88a.441.441,0,0,1-.44-.44V42.772l-1.364,3.07a.44.44,0,0,1-.787,0l-1.37-3.07v3.752a.441.441,0,0,1-.44.44H11a.441.441,0,0,1-.44-.44V40.8a.883.883,0,0,1,.88-.88h.88a.876.876,0,0,1,.787.484l.974,1.948.974-1.948a.882.882,0,0,1,.787-.484h.88a.883.883,0,0,1,.88.88Zm2.657.44h-.677a.441.441,0,0,1-.44-.44v-.88a.441.441,0,0,1,.44-.44h.677c.33,0,.572-.193.572-.363a.291.291,0,0,0-.116-.209l-1.2-1.034a2.034,2.034,0,0,1-.732-1.546,2.237,2.237,0,0,1,2.333-2.124h.671a.441.441,0,0,1,.44.44v.88a.441.441,0,0,1-.44.44h-.677c-.33,0-.572.193-.572.363a.291.291,0,0,0,.116.209l1.2,1.034a2.034,2.034,0,0,1,.732,1.546,2.228,2.228,0,0,1-2.327,2.124Z" transform="translate(0 -32)"/></svg>